<svg width="15" height="13" viewBox="0 0 15 13" fill="none" xmlns="http://www.w3.org/2000/svg">
<path d="M1.58801 7.68116L6.80247 12.5796L6.80248 12.5796C6.90088 12.672 6.95008 12.7183 7.00051 12.7473C7.15495 12.8362 7.34505 12.8362 7.49949 12.7473C7.54992 12.7183 7.59913 12.672 7.69753 12.5796L12.912 7.68116C14.3791 6.30294 14.5573 4.03495 13.3234 2.44455L13.0913 2.14551C11.6152 0.242936 8.65222 0.56201 7.615 2.73524C7.46849 3.04222 7.03151 3.04222 6.885 2.73524C5.84778 0.56201 2.88479 0.242935 1.40866 2.14551L1.17664 2.44455C-0.0572889 4.03495 0.120872 6.30294 1.58801 7.68116Z" fill="#E22F1D"/>
</svg>
