<svg width="33" height="33" viewBox="0 0 33 33" fill="none" xmlns="http://www.w3.org/2000/svg">
<path d="M4.87353 13.8045C5.33926 14.004 5.79636 14.2011 6.28251 14.3692M7.4119 28.8489C5.74688 26.8273 6.02648 23.7674 3.98211 21.9837C3.07264 20.9556 3.20851 19.4767 3.4559 18.2279C3.59413 16.167 1.7579 14.5302 1.68564 12.441M12.3787 1.93306C12.231 4.61523 8.72114 2.98551 8.18786 5.37236C8.85387 6.0698 9.74764 5.38571 10.3115 5.08333C13.1641 5.18543 11.7959 7.7867 9.74214 7.9964C8.37007 8.7229 6.66185 9.46119 5.93066 10.9692C5.45236 11.3627 5.5309 12.2612 4.64262 12.2038C4.29941 11.7169 4.40072 9.91358 3.53444 10.8058C1.61103 12.13 3.88787 14.1218 3.93813 15.8929C7.24147 15.5944 8.87036 18.5931 11.2454 20.3014C12.513 21.3193 15.1063 22.2939 13.1185 24.0289C12.0724 26.1801 9.0188 27.9418 10.2401 30.5281C10.2275 30.646 10.3924 30.6232 10.3367 30.7575M31.0088 21.342C29.4208 21.2242 29.0972 23.7964 29.4192 24.9423M17.5332 7.02328C17.6636 6.99187 17.8026 6.96202 17.9109 6.87877C18.1104 6.7586 18.079 6.42323 18.0578 6.21117C17.9636 6.04938 17.885 5.76506 17.6973 5.65039M30.7371 10.549C30.0656 10.7367 28.3377 9.80284 29.0375 10.8773C29.1498 11.6053 29.7758 11.7758 30.1261 12.0232C30.3876 12.5486 30.5627 13.8775 29.8449 14.1461C29.3886 14.1626 26.9947 11.7247 27.6592 13.1565C27.788 14.0857 28.4893 14.8263 29.0556 15.4106C29.3525 16.2353 30.6554 15.8026 30.7049 16.4348C30.2164 18.0276 29.1781 19.15 28.5294 20.654C28.644 22.3434 28.5844 24.0391 27.5822 25.4764C23.0183 30.4952 21.9117 25.1183 23.5013 20.8567C24.0809 15.7774 18.7922 20.0657 16.9983 17.5163C15.3804 15.8104 16.7957 12.6963 18.4497 11.4828C19.0623 10.8129 20.1234 10.7846 20.9551 11.0626C22.6296 11.3344 25.0124 11.204 26.4764 10.3487C26.379 9.83268 25.5182 9.28525 24.9323 9.23185C24.8357 8.6907 26.207 8.50142 25.3054 8.0451C24.282 7.95635 24.2836 9.92693 23.3285 8.89098C23.1047 8.20846 21.6148 8.21082 22.4913 8.94046C22.5306 9.73058 22.5989 10.2537 22.0947 9.40385C20.7556 8.68913 19.4966 10.2521 18.2746 10.439C17.0949 9.07241 20.0338 6.23159 21.3077 5.79412C22.1355 5.09275 20.1391 4.00104 20.6166 5.28361C20.2844 6.11692 18.5102 5.53337 19.3191 4.71811C19.5375 3.93035 20.1517 3.38842 20.8145 3.14966C21.6407 3.2337 21.991 3.19286 21.9997 2.27943M14.1772 1.75635C14.1097 2.29435 14.3932 2.80565 14.3343 3.34365C14.3343 3.82118 13.1437 4.67492 13.8458 4.89562C14.5786 5.14302 15.1181 4.85792 15.5579 4.2775C16.3567 3.66253 17.0737 3.03028 16.9457 1.89772C16.8428 1.86081 16.6928 1.83253 16.7195 1.76577C15.9577 1.172 15.0168 1.43119 14.1772 1.75635ZM31.9992 16.5C31.9992 25.0609 25.0603 32 16.4996 32C7.93889 32 1 25.0609 1 16.5C1 7.93907 7.93889 1 16.4996 1C25.0603 1 31.9992 7.93907 31.9992 16.5Z" stroke="black" stroke-width="0.5" stroke-linecap="round" stroke-linejoin="round"/>
</svg>
